<svg width="249" height="48" viewBox="0 0 249 48" fill="none" xmlns="http://www.w3.org/2000/svg">
<path d="M76.3789 37.5977C76.3789 37.9336 76.3164 38.248 76.1914 38.541C76.0664 38.8301 75.8945 39.084 75.6758 39.3027C75.4609 39.5176 75.207 39.6875 74.9141 39.8125C74.625 39.9375 74.3145 40 73.9824 40H66.6816V38.7988H73.9824C74.1504 38.7988 74.3066 38.7676 74.4512 38.7051C74.5957 38.6426 74.7207 38.5566 74.8262 38.4473C74.9355 38.3379 75.0215 38.2109 75.084 38.0664C75.1465 37.918 75.1777 37.7617 75.1777 37.5977C75.1777 37.4336 75.1465 37.2793 75.084 37.1348C75.0215 36.9902 74.9355 36.8633 74.8262 36.7539C74.7207 36.6445 74.5957 36.5586 74.4512 36.4961C74.3066 36.4336 74.1504 36.4023 73.9824 36.4023H69.084C68.7559 36.4023 68.4453 36.3398 68.1523 36.2148C67.8594 36.0898 67.6035 35.9199 67.3848 35.7051C67.1699 35.4863 66.998 35.2305 66.8691 34.9375C66.7441 34.6445 66.6816 34.332 66.6816 34C66.6816 33.6719 66.7441 33.3613 66.8691 33.0684C66.998 32.7754 67.1699 32.5215 67.3848 32.3066C67.6035 32.0879 67.8594 31.916 68.1523 31.791C68.4453 31.6621 68.7559 31.5977 69.084 31.5977H75.7812V32.7988H69.084C68.9199 32.7988 68.7637 32.8301 68.6152 32.8926C68.4707 32.9551 68.3438 33.041 68.2344 33.1504C68.125 33.2598 68.0391 33.3887 67.9766 33.5371C67.9141 33.6816 67.8828 33.8359 67.8828 34C67.8828 34.1641 67.9141 34.3203 67.9766 34.4688C68.0391 34.6133 68.125 34.7402 68.2344 34.8496C68.3438 34.959 68.4707 35.0449 68.6152 35.1074C68.7637 35.1699 68.9199 35.2012 69.084 35.2012H73.9824C74.3145 35.2012 74.625 35.2656 74.9141 35.3945C75.207 35.5195 75.4609 35.6914 75.6758 35.9102C75.8945 36.125 76.0664 36.3789 76.1914 36.6719C76.3164 36.9609 76.3789 37.2695 76.3789 37.5977ZM86.791 31.5977L86.7793 35.7988C86.7793 36.1895 86.7285 36.5645 86.627 36.9238C86.5293 37.2793 86.3887 37.6133 86.2051 37.9258C86.0254 38.2344 85.8066 38.5176 85.5488 38.7754C85.2949 39.0293 85.0117 39.248 84.6992 39.4316C84.3906 39.6113 84.0586 39.752 83.7031 39.8535C83.3477 39.9512 82.9766 40 82.5898 40H81.7051C81.3184 40 80.9453 39.9512 80.5859 39.8535C80.2305 39.752 79.8965 39.6094 79.584 39.4258C79.2754 39.2422 78.9941 39.0234 78.7402 38.7695C78.4863 38.5117 78.2676 38.2285 78.084 37.9199C77.9043 37.6074 77.7637 37.2734 77.6621 36.918C77.5645 36.5586 77.5156 36.1855 77.5156 35.7988V31.5977H78.7168V35.7988C78.7168 36.2129 78.7949 36.6035 78.9512 36.9707C79.1074 37.334 79.3203 37.6523 79.5898 37.9258C79.8633 38.1953 80.1816 38.4082 80.5449 38.5645C80.9082 38.7207 81.2949 38.7988 81.7051 38.7988H82.5898C83.0039 38.7988 83.3926 38.7207 83.7559 38.5645C84.1191 38.4082 84.4355 38.1953 84.7051 37.9258C84.9746 37.6523 85.1875 37.334 85.3438 36.9707C85.5 36.6035 85.5781 36.2129 85.5781 35.7988V31.5977H86.7793H86.791ZM98.2227 34.5977C98.2227 35.0117 98.1426 35.4023 97.9824 35.7695C97.8262 36.1328 97.6113 36.4512 97.3379 36.7246C97.0684 36.9941 96.752 37.207 96.3887 37.3633C96.0254 37.5195 95.6367 37.5977 95.2227 37.5977H90.4004V36.4141H95.2227C95.4727 36.4141 95.707 36.3672 95.9258 36.2734C96.1445 36.1758 96.334 36.0449 96.4941 35.8809C96.6582 35.7168 96.7871 35.5254 96.8809 35.3066C96.9746 35.084 97.0215 34.8477 97.0215 34.5977C97.0215 34.3477 96.9746 34.1133 96.8809 33.8945C96.7871 33.6758 96.6582 33.4863 96.4941 33.3262C96.334 33.1621 96.1445 33.0332 95.9258 32.9395C95.707 32.8457 95.4727 32.7988 95.2227 32.7988H89.7266V40H88.5254V31.5977H95.2227C95.6367 31.5977 96.0254 31.6777 96.3887 31.8379C96.752 31.9941 97.0684 32.209 97.3379 32.4824C97.6113 32.752 97.8262 33.0684 97.9824 33.4316C98.1426 33.7949 98.2227 34.1836 98.2227 34.5977ZM109.227 34.5977C109.227 35.0117 109.146 35.4023 108.986 35.7695C108.83 36.1328 108.615 36.4512 108.342 36.7246C108.072 36.9941 107.756 37.207 107.393 37.3633C107.029 37.5195 106.641 37.5977 106.227 37.5977H101.404V36.4141H106.227C106.477 36.4141 106.711 36.3672 106.93 36.2734C107.148 36.1758 107.338 36.0449 107.498 35.8809C107.662 35.7168 107.791 35.5254 107.885 35.3066C107.979 35.084 108.025 34.8477 108.025 34.5977C108.025 34.3477 107.979 34.1133 107.885 33.8945C107.791 33.6758 107.662 33.4863 107.498 33.3262C107.338 33.1621 107.148 33.0332 106.93 32.9395C106.711 32.8457 106.477 32.7988 106.227 32.7988H100.73V40H99.5293V31.5977H106.227C106.641 31.5977 107.029 31.6777 107.393 31.8379C107.756 31.9941 108.072 32.209 108.342 32.4824C108.615 32.752 108.83 33.0684 108.986 33.4316C109.146 33.7949 109.227 34.1836 109.227 34.5977ZM118.561 40H110.533V31.5977H111.734V38.7988H118.561V40ZM128.387 40H119.697V31.5977H128.387V32.7988H120.898V38.7988H128.387V40ZM127.367 36.4023H121.496V35.2012H127.367V36.4023ZM135.928 40H134.727V35.7988C134.727 35.3848 134.648 34.9961 134.492 34.6328C134.336 34.2695 134.121 33.9531 133.848 33.6836C133.578 33.4102 133.26 33.1953 132.893 33.0391C132.529 32.8789 132.141 32.7988 131.727 32.7988H131.082V40H129.881V31.5977H131.727C132.109 31.5977 132.477 31.6484 132.828 31.75C133.184 31.8477 133.516 31.9863 133.824 32.166C134.133 32.3457 134.414 32.5605 134.668 32.8105C134.922 33.0605 135.143 33.3379 135.33 33.6426C135.514 33.3379 135.732 33.0605 135.986 32.8105C136.24 32.5605 136.521 32.3457 136.83 32.166C137.139 31.9863 137.469 31.8477 137.82 31.75C138.176 31.6484 138.545 31.5977 138.928 31.5977H140.779V40H139.578V32.7988H138.928C138.514 32.7988 138.125 32.8789 137.762 33.0391C137.398 33.1953 137.08 33.4102 136.807 33.6836C136.537 33.9531 136.322 34.2695 136.162 34.6328C136.006 34.9961 135.928 35.3848 135.928 35.7988V40ZM151.484 40H142.795V31.5977H151.484V32.7988H143.996V38.7988H151.484V40ZM150.465 36.4023H144.594V35.2012H150.465V36.4023ZM154.18 40H152.979V31.5977H153.576C153.967 31.5977 154.381 31.6484 154.818 31.75C155.26 31.8516 155.709 31.998 156.166 32.1895C156.623 32.3809 157.078 32.6133 157.531 32.8867C157.988 33.1562 158.43 33.4629 158.855 33.8066C159.281 34.1504 159.682 34.5254 160.057 34.9316C160.432 35.334 160.768 35.7637 161.064 36.2207V31.5977H162.266V40H161.064C161.064 39.3828 160.957 38.7891 160.742 38.2188C160.527 37.6445 160.24 37.1035 159.881 36.5957C159.521 36.0879 159.107 35.6211 158.639 35.1953C158.17 34.7656 157.68 34.3887 157.168 34.0645C156.66 33.7402 156.148 33.4746 155.633 33.2676C155.117 33.0566 154.633 32.916 154.18 32.8457V40ZM168.846 40H167.645V32.7988H163.396V31.5977H173.094V32.7988H168.846V40ZM183.5 37.5977C183.5 37.9336 183.438 38.248 183.312 38.541C183.188 38.8301 183.016 39.084 182.797 39.3027C182.582 39.5176 182.328 39.6875 182.035 39.8125C181.746 39.9375 181.436 40 181.104 40H173.803V38.7988H181.104C181.271 38.7988 181.428 38.7676 181.572 38.7051C181.717 38.6426 181.842 38.5566 181.947 38.4473C182.057 38.3379 182.143 38.2109 182.205 38.0664C182.268 37.918 182.299 37.7617 182.299 37.5977C182.299 37.4336 182.268 37.2793 182.205 37.1348C182.143 36.9902 182.057 36.8633 181.947 36.7539C181.842 36.6445 181.717 36.5586 181.572 36.4961C181.428 36.4336 181.271 36.4023 181.104 36.4023H176.205C175.877 36.4023 175.566 36.3398 175.273 36.2148C174.98 36.0898 174.725 35.9199 174.506 35.7051C174.291 35.4863 174.119 35.2305 173.99 34.9375C173.865 34.6445 173.803 34.332 173.803 34C173.803 33.6719 173.865 33.3613 173.99 33.0684C174.119 32.7754 174.291 32.5215 174.506 32.3066C174.725 32.0879 174.98 31.916 175.273 31.791C175.566 31.6621 175.877 31.5977 176.205 31.5977H182.902V32.7988H176.205C176.041 32.7988 175.885 32.8301 175.736 32.8926C175.592 32.9551 175.465 33.041 175.355 33.1504C175.246 33.2598 175.16 33.3887 175.098 33.5371C175.035 33.6816 175.004 33.8359 175.004 34C175.004 34.1641 175.035 34.3203 175.098 34.4688C175.16 34.6133 175.246 34.7402 175.355 34.8496C175.465 34.959 175.592 35.0449 175.736 35.1074C175.885 35.1699 176.041 35.2012 176.205 35.2012H181.104C181.436 35.2012 181.746 35.2656 182.035 35.3945C182.328 35.5195 182.582 35.6914 182.797 35.9102C183.016 36.125 183.188 36.3789 183.312 36.6719C183.438 36.9609 183.5 37.2695 183.5 37.5977Z" fill="#2E3D44"/>
<line x1="16" y1="35.5" x2="66" y2="35.5" stroke="#2E3D44"/>
<line x1="184" y1="35.5" x2="234" y2="35.5" stroke="#2E3D44"/>
<path d="M5.78906 29H2.78613V7.99414H4.28027C5.25684 7.99414 6.29199 8.12109 7.38574 8.375C8.48926 8.62891 9.6123 8.99512 10.7549 9.47363C11.8975 9.95215 13.0352 10.5332 14.168 11.2168C15.3105 11.8906 16.4141 12.6572 17.4785 13.5166C18.543 14.376 19.5439 15.3135 20.4814 16.3291C21.4189 17.335 22.2588 18.4092 23.001 19.5518V7.99414H26.0039V29H23.001C23.001 27.457 22.7324 25.9727 22.1953 24.5469C21.6582 23.1113 20.9404 21.7588 20.042 20.4893C19.1436 19.2197 18.1084 18.0527 16.9365 16.9883C15.7646 15.9141 14.5391 14.9717 13.2598 14.1611C11.9902 13.3506 10.7109 12.6865 9.42188 12.1689C8.13281 11.6416 6.92188 11.29 5.78906 11.1143V29ZM53.5576 7.99414L53.5283 18.4971C53.5283 19.4736 53.4014 20.4111 53.1475 21.3096C52.9033 22.1982 52.5518 23.0332 52.0928 23.8145C51.6436 24.5859 51.0967 25.2939 50.4521 25.9385C49.8174 26.5732 49.1094 27.1201 48.3281 27.5791C47.5566 28.0283 46.7266 28.3799 45.8379 28.6338C44.9492 28.8779 44.0215 29 43.0547 29H40.8428C39.876 29 38.9434 28.8779 38.0449 28.6338C37.1562 28.3799 36.3213 28.0234 35.54 27.5645C34.7686 27.1055 34.0654 26.5586 33.4307 25.9238C32.7959 25.2793 32.249 24.5713 31.79 23.7998C31.3408 23.0186 30.9893 22.1836 30.7354 21.2949C30.4912 20.3965 30.3691 19.4639 30.3691 18.4971V7.99414H33.3721V18.4971C33.3721 19.5322 33.5674 20.5088 33.958 21.4268C34.3486 22.335 34.8809 23.1309 35.5547 23.8145C36.2383 24.4883 37.0342 25.0205 37.9424 25.4111C38.8506 25.8018 39.8174 25.9971 40.8428 25.9971H43.0547C44.0898 25.9971 45.0615 25.8018 45.9697 25.4111C46.8779 25.0205 47.6689 24.4883 48.3428 23.8145C49.0166 23.1309 49.5488 22.335 49.9395 21.4268C50.3301 20.5088 50.5254 19.5322 50.5254 18.4971V7.99414H53.5283H53.5576ZM69.29 29H66.2871V10.9971H55.667V7.99414H79.9102V10.9971H69.29V29ZM106.98 29H102.923L96.624 22.9941H87.4248V20.0352H99.4805C100.105 20.0352 100.691 19.918 101.238 19.6836C101.785 19.4395 102.259 19.1123 102.659 18.7021C103.069 18.292 103.392 17.8135 103.626 17.2666C103.86 16.71 103.978 16.1191 103.978 15.4941C103.978 14.8691 103.86 14.2832 103.626 13.7363C103.392 13.1895 103.069 12.7158 102.659 12.3154C102.259 11.9053 101.785 11.583 101.238 11.3486C100.691 11.1143 100.105 10.9971 99.4805 10.9971H85.7402V29H82.7373V7.99414H99.4805C100.516 7.99414 101.487 8.19434 102.396 8.59473C103.304 8.98535 104.095 9.52246 104.769 10.2061C105.452 10.8799 105.989 11.6709 106.38 12.5791C106.78 13.4873 106.98 14.459 106.98 15.4941C106.98 16.4316 106.819 17.3203 106.497 18.1602C106.175 18.9902 105.73 19.7373 105.164 20.4014C104.598 21.0557 103.929 21.6025 103.157 22.042C102.396 22.4717 101.57 22.7598 100.682 22.9062L106.98 29ZM135.911 18.4971C135.911 19.9521 135.682 21.3193 135.223 22.5986C134.764 23.8779 134.109 24.9912 133.26 25.9385C132.42 26.8857 131.409 27.6328 130.228 28.1797C129.046 28.7266 127.732 29 126.287 29H119.3C117.845 29 116.521 28.7266 115.33 28.1797C114.139 27.6328 113.118 26.8857 112.269 25.9385C111.429 24.9912 110.779 23.8779 110.32 22.5986C109.861 21.3193 109.632 19.9521 109.632 18.4971C109.632 17.0518 109.861 15.6943 110.32 14.4248C110.779 13.1455 111.429 12.0322 112.269 11.085C113.118 10.1279 114.139 9.37598 115.33 8.8291C116.521 8.27246 117.845 7.99414 119.3 7.99414H126.287C127.732 7.99414 129.046 8.27246 130.228 8.8291C131.409 9.37598 132.42 10.1279 133.26 11.085C134.109 12.0322 134.764 13.1455 135.223 14.4248C135.682 15.6943 135.911 17.0518 135.911 18.4971ZM132.908 18.4971C132.908 17.4619 132.757 16.4902 132.454 15.582C132.151 14.6738 131.712 13.8828 131.136 13.209C130.569 12.5254 129.876 11.9883 129.056 11.5977C128.245 11.1973 127.322 10.9971 126.287 10.9971H119.3C118.265 10.9971 117.332 11.1973 116.502 11.5977C115.682 11.9883 114.983 12.5254 114.407 13.209C113.841 13.8828 113.401 14.6738 113.089 15.582C112.786 16.4902 112.635 17.4619 112.635 18.4971C112.635 19.5322 112.786 20.5088 113.089 21.4268C113.401 22.335 113.841 23.1309 114.407 23.8145C114.983 24.4883 115.682 25.0205 116.502 25.4111C117.332 25.8018 118.265 25.9971 119.3 25.9971H126.287C127.322 25.9971 128.245 25.8018 129.056 25.4111C129.876 25.0205 130.569 24.4883 131.136 23.8145C131.712 23.1309 132.151 22.335 132.454 21.4268C132.757 20.5088 132.908 19.5322 132.908 18.4971ZM159.817 29H139.749V7.99414H142.752V25.9971H159.817V29ZM165.662 29H162.659V7.99414H165.662V29ZM173.719 29H170.716V7.99414H172.21C173.187 7.99414 174.222 8.12109 175.315 8.375C176.419 8.62891 177.542 8.99512 178.685 9.47363C179.827 9.95215 180.965 10.5332 182.098 11.2168C183.24 11.8906 184.344 12.6572 185.408 13.5166C186.473 14.376 187.474 15.3135 188.411 16.3291C189.349 17.335 190.188 18.4092 190.931 19.5518V7.99414H193.934V29H190.931C190.931 27.457 190.662 25.9727 190.125 24.5469C189.588 23.1113 188.87 21.7588 187.972 20.4893C187.073 19.2197 186.038 18.0527 184.866 16.9883C183.694 15.9141 182.469 14.9717 181.189 14.1611C179.92 13.3506 178.641 12.6865 177.352 12.1689C176.062 11.6416 174.852 11.29 173.719 11.1143V29ZM223.406 29H219.363L208.641 18.2041L201.99 22.9941V29H198.987V7.99414H201.99V19.6982L218.455 7.99414H222.835L210.926 16.5488L223.406 29ZM241.79 16.6074H240.164V12.2861C240.164 11.9248 240.091 11.583 239.944 11.2607C239.808 10.9287 239.617 10.6455 239.373 10.4111C239.139 10.167 238.855 9.97656 238.523 9.83984C238.201 9.69336 237.859 9.62012 237.498 9.62012H237.103V16.6074H235.491V7.99414H237.498C238.221 7.99414 238.885 8.16504 239.49 8.50684C240.105 8.84863 240.608 9.29785 240.999 9.85449C241.399 9.29785 241.897 8.84863 242.493 8.50684C243.099 8.16504 243.753 7.99414 244.456 7.99414H246.492V16.6074H244.881V9.62012H244.456C244.095 9.62012 243.753 9.69336 243.431 9.83984C243.118 9.98633 242.84 10.1865 242.596 10.4404C242.361 10.6943 242.171 10.9922 242.024 11.334C241.878 11.666 241.8 12.0225 241.79 12.4033V16.6074ZM230.774 16.6074H229.119V9.62012H225.018V7.99414H234.861V9.62012H230.774V16.6074Z" fill="#2E3D44"/>
</svg>
