<svg width="240" height="44" viewBox="0 0 240 44" fill="none" xmlns="http://www.w3.org/2000/svg">
<path d="M14.0186 29H11.0156V7.99414H12.5098C13.4863 7.99414 14.5215 8.12109 15.6152 8.375C16.7188 8.62891 17.8418 8.99512 18.9844 9.47363C20.127 9.95215 21.2646 10.5332 22.3975 11.2168C23.54 11.8906 24.6436 12.6572 25.708 13.5166C26.7725 14.376 27.7734 15.3135 28.7109 16.3291C29.6484 17.335 30.4883 18.4092 31.2305 19.5518V7.99414H34.2334V29H31.2305C31.2305 27.457 30.9619 25.9727 30.4248 24.5469C29.8877 23.1113 29.1699 21.7588 28.2715 20.4893C27.373 19.2197 26.3379 18.0527 25.166 16.9883C23.9941 15.9141 22.7686 14.9717 21.4893 14.1611C20.2197 13.3506 18.9404 12.6865 17.6514 12.1689C16.3623 11.6416 15.1514 11.29 14.0186 11.1143V29ZM61.7871 7.99414L61.7578 18.4971C61.7578 19.4736 61.6309 20.4111 61.377 21.3096C61.1328 22.1982 60.7812 23.0332 60.3223 23.8145C59.873 24.5859 59.3262 25.2939 58.6816 25.9385C58.0469 26.5732 57.3389 27.1201 56.5576 27.5791C55.7861 28.0283 54.9561 28.3799 54.0674 28.6338C53.1787 28.8779 52.251 29 51.2842 29H49.0723C48.1055 29 47.1729 28.8779 46.2744 28.6338C45.3857 28.3799 44.5508 28.0234 43.7695 27.5645C42.998 27.1055 42.2949 26.5586 41.6602 25.9238C41.0254 25.2793 40.4785 24.5713 40.0195 23.7998C39.5703 23.0186 39.2188 22.1836 38.9648 21.2949C38.7207 20.3965 38.5986 19.4639 38.5986 18.4971V7.99414H41.6016V18.4971C41.6016 19.5322 41.7969 20.5088 42.1875 21.4268C42.5781 22.335 43.1104 23.1309 43.7842 23.8145C44.4678 24.4883 45.2637 25.0205 46.1719 25.4111C47.0801 25.8018 48.0469 25.9971 49.0723 25.9971H51.2842C52.3193 25.9971 53.291 25.8018 54.1992 25.4111C55.1074 25.0205 55.8984 24.4883 56.5723 23.8145C57.2461 23.1309 57.7783 22.335 58.1689 21.4268C58.5596 20.5088 58.7549 19.5322 58.7549 18.4971V7.99414H61.7578H61.7871ZM77.5195 29H74.5166V10.9971H63.8965V7.99414H88.1396V10.9971H77.5195V29ZM115.21 29H111.152L104.854 22.9941H95.6543V20.0352H107.71C108.335 20.0352 108.921 19.918 109.468 19.6836C110.015 19.4395 110.488 19.1123 110.889 18.7021C111.299 18.292 111.621 17.8135 111.855 17.2666C112.09 16.71 112.207 16.1191 112.207 15.4941C112.207 14.8691 112.09 14.2832 111.855 13.7363C111.621 13.1895 111.299 12.7158 110.889 12.3154C110.488 11.9053 110.015 11.583 109.468 11.3486C108.921 11.1143 108.335 10.9971 107.71 10.9971H93.9697V29H90.9668V7.99414H107.71C108.745 7.99414 109.717 8.19434 110.625 8.59473C111.533 8.98535 112.324 9.52246 112.998 10.2061C113.682 10.8799 114.219 11.6709 114.609 12.5791C115.01 13.4873 115.21 14.459 115.21 15.4941C115.21 16.4316 115.049 17.3203 114.727 18.1602C114.404 18.9902 113.96 19.7373 113.394 20.4014C112.827 21.0557 112.158 21.6025 111.387 22.042C110.625 22.4717 109.8 22.7598 108.911 22.9062L115.21 29ZM144.141 18.4971C144.141 19.9521 143.911 21.3193 143.452 22.5986C142.993 23.8779 142.339 24.9912 141.489 25.9385C140.649 26.8857 139.639 27.6328 138.457 28.1797C137.275 28.7266 135.962 29 134.517 29H127.529C126.074 29 124.751 28.7266 123.56 28.1797C122.368 27.6328 121.348 26.8857 120.498 25.9385C119.658 24.9912 119.009 23.8779 118.55 22.5986C118.091 21.3193 117.861 19.9521 117.861 18.4971C117.861 17.0518 118.091 15.6943 118.55 14.4248C119.009 13.1455 119.658 12.0322 120.498 11.085C121.348 10.1279 122.368 9.37598 123.56 8.8291C124.751 8.27246 126.074 7.99414 127.529 7.99414H134.517C135.962 7.99414 137.275 8.27246 138.457 8.8291C139.639 9.37598 140.649 10.1279 141.489 11.085C142.339 12.0322 142.993 13.1455 143.452 14.4248C143.911 15.6943 144.141 17.0518 144.141 18.4971ZM141.138 18.4971C141.138 17.4619 140.986 16.4902 140.684 15.582C140.381 14.6738 139.941 13.8828 139.365 13.209C138.799 12.5254 138.105 11.9883 137.285 11.5977C136.475 11.1973 135.552 10.9971 134.517 10.9971H127.529C126.494 10.9971 125.562 11.1973 124.731 11.5977C123.911 11.9883 123.213 12.5254 122.637 13.209C122.07 13.8828 121.631 14.6738 121.318 15.582C121.016 16.4902 120.864 17.4619 120.864 18.4971C120.864 19.5322 121.016 20.5088 121.318 21.4268C121.631 22.335 122.07 23.1309 122.637 23.8145C123.213 24.4883 123.911 25.0205 124.731 25.4111C125.562 25.8018 126.494 25.9971 127.529 25.9971H134.517C135.552 25.9971 136.475 25.8018 137.285 25.4111C138.105 25.0205 138.799 24.4883 139.365 23.8145C139.941 23.1309 140.381 22.335 140.684 21.4268C140.986 20.5088 141.138 19.5322 141.138 18.4971ZM168.047 29H147.979V7.99414H150.981V25.9971H168.047V29ZM173.892 29H170.889V7.99414H173.892V29ZM181.948 29H178.945V7.99414H180.439C181.416 7.99414 182.451 8.12109 183.545 8.375C184.648 8.62891 185.771 8.99512 186.914 9.47363C188.057 9.95215 189.194 10.5332 190.327 11.2168C191.47 11.8906 192.573 12.6572 193.638 13.5166C194.702 14.376 195.703 15.3135 196.641 16.3291C197.578 17.335 198.418 18.4092 199.16 19.5518V7.99414H202.163V29H199.16C199.16 27.457 198.892 25.9727 198.354 24.5469C197.817 23.1113 197.1 21.7588 196.201 20.4893C195.303 19.2197 194.268 18.0527 193.096 16.9883C191.924 15.9141 190.698 14.9717 189.419 14.1611C188.149 13.3506 186.87 12.6865 185.581 12.1689C184.292 11.6416 183.081 11.29 181.948 11.1143V29ZM231.636 29H227.593L216.87 18.2041L210.22 22.9941V29H207.217V7.99414H210.22V19.6982L226.685 7.99414H231.064L219.155 16.5488L231.636 29Z" fill="black"/>
<path d="M71.3789 38.5977C71.3789 38.9336 71.3164 39.248 71.1914 39.541C71.0664 39.8301 70.8945 40.084 70.6758 40.3027C70.4609 40.5176 70.207 40.6875 69.9141 40.8125C69.625 40.9375 69.3145 41 68.9824 41H61.6816V39.7988H68.9824C69.1504 39.7988 69.3066 39.7676 69.4512 39.7051C69.5957 39.6426 69.7207 39.5566 69.8262 39.4473C69.9355 39.3379 70.0215 39.2109 70.084 39.0664C70.1465 38.918 70.1777 38.7617 70.1777 38.5977C70.1777 38.4336 70.1465 38.2793 70.084 38.1348C70.0215 37.9902 69.9355 37.8633 69.8262 37.7539C69.7207 37.6445 69.5957 37.5586 69.4512 37.4961C69.3066 37.4336 69.1504 37.4023 68.9824 37.4023H64.084C63.7559 37.4023 63.4453 37.3398 63.1523 37.2148C62.8594 37.0898 62.6035 36.9199 62.3848 36.7051C62.1699 36.4863 61.998 36.2305 61.8691 35.9375C61.7441 35.6445 61.6816 35.332 61.6816 35C61.6816 34.6719 61.7441 34.3613 61.8691 34.0684C61.998 33.7754 62.1699 33.5215 62.3848 33.3066C62.6035 33.0879 62.8594 32.916 63.1523 32.791C63.4453 32.6621 63.7559 32.5977 64.084 32.5977H70.7812V33.7988H64.084C63.9199 33.7988 63.7637 33.8301 63.6152 33.8926C63.4707 33.9551 63.3438 34.041 63.2344 34.1504C63.125 34.2598 63.0391 34.3887 62.9766 34.5371C62.9141 34.6816 62.8828 34.8359 62.8828 35C62.8828 35.1641 62.9141 35.3203 62.9766 35.4688C63.0391 35.6133 63.125 35.7402 63.2344 35.8496C63.3438 35.959 63.4707 36.0449 63.6152 36.1074C63.7637 36.1699 63.9199 36.2012 64.084 36.2012H68.9824C69.3145 36.2012 69.625 36.2656 69.9141 36.3945C70.207 36.5195 70.4609 36.6914 70.6758 36.9102C70.8945 37.125 71.0664 37.3789 71.1914 37.6719C71.3164 37.9609 71.3789 38.2695 71.3789 38.5977ZM81.791 32.5977L81.7793 36.7988C81.7793 37.1895 81.7285 37.5645 81.627 37.9238C81.5293 38.2793 81.3887 38.6133 81.2051 38.9258C81.0254 39.2344 80.8066 39.5176 80.5488 39.7754C80.2949 40.0293 80.0117 40.248 79.6992 40.4316C79.3906 40.6113 79.0586 40.752 78.7031 40.8535C78.3477 40.9512 77.9766 41 77.5898 41H76.7051C76.3184 41 75.9453 40.9512 75.5859 40.8535C75.2305 40.752 74.8965 40.6094 74.584 40.4258C74.2754 40.2422 73.9941 40.0234 73.7402 39.7695C73.4863 39.5117 73.2676 39.2285 73.084 38.9199C72.9043 38.6074 72.7637 38.2734 72.6621 37.918C72.5645 37.5586 72.5156 37.1855 72.5156 36.7988V32.5977H73.7168V36.7988C73.7168 37.2129 73.7949 37.6035 73.9512 37.9707C74.1074 38.334 74.3203 38.6523 74.5898 38.9258C74.8633 39.1953 75.1816 39.4082 75.5449 39.5645C75.9082 39.7207 76.2949 39.7988 76.7051 39.7988H77.5898C78.0039 39.7988 78.3926 39.7207 78.7559 39.5645C79.1191 39.4082 79.4355 39.1953 79.7051 38.9258C79.9746 38.6523 80.1875 38.334 80.3438 37.9707C80.5 37.6035 80.5781 37.2129 80.5781 36.7988V32.5977H81.7793H81.791ZM93.2227 35.5977C93.2227 36.0117 93.1426 36.4023 92.9824 36.7695C92.8262 37.1328 92.6113 37.4512 92.3379 37.7246C92.0684 37.9941 91.752 38.207 91.3887 38.3633C91.0254 38.5195 90.6367 38.5977 90.2227 38.5977H85.4004V37.4141H90.2227C90.4727 37.4141 90.707 37.3672 90.9258 37.2734C91.1445 37.1758 91.334 37.0449 91.4941 36.8809C91.6582 36.7168 91.7871 36.5254 91.8809 36.3066C91.9746 36.084 92.0215 35.8477 92.0215 35.5977C92.0215 35.3477 91.9746 35.1133 91.8809 34.8945C91.7871 34.6758 91.6582 34.4863 91.4941 34.3262C91.334 34.1621 91.1445 34.0332 90.9258 33.9395C90.707 33.8457 90.4727 33.7988 90.2227 33.7988H84.7266V41H83.5254V32.5977H90.2227C90.6367 32.5977 91.0254 32.6777 91.3887 32.8379C91.752 32.9941 92.0684 33.209 92.3379 33.4824C92.6113 33.752 92.8262 34.0684 92.9824 34.4316C93.1426 34.7949 93.2227 35.1836 93.2227 35.5977ZM104.227 35.5977C104.227 36.0117 104.146 36.4023 103.986 36.7695C103.83 37.1328 103.615 37.4512 103.342 37.7246C103.072 37.9941 102.756 38.207 102.393 38.3633C102.029 38.5195 101.641 38.5977 101.227 38.5977H96.4043V37.4141H101.227C101.477 37.4141 101.711 37.3672 101.93 37.2734C102.148 37.1758 102.338 37.0449 102.498 36.8809C102.662 36.7168 102.791 36.5254 102.885 36.3066C102.979 36.084 103.025 35.8477 103.025 35.5977C103.025 35.3477 102.979 35.1133 102.885 34.8945C102.791 34.6758 102.662 34.4863 102.498 34.3262C102.338 34.1621 102.148 34.0332 101.93 33.9395C101.711 33.8457 101.477 33.7988 101.227 33.7988H95.7305V41H94.5293V32.5977H101.227C101.641 32.5977 102.029 32.6777 102.393 32.8379C102.756 32.9941 103.072 33.209 103.342 33.4824C103.615 33.752 103.83 34.0684 103.986 34.4316C104.146 34.7949 104.227 35.1836 104.227 35.5977ZM113.561 41H105.533V32.5977H106.734V39.7988H113.561V41ZM123.387 41H114.697V32.5977H123.387V33.7988H115.898V39.7988H123.387V41ZM122.367 37.4023H116.496V36.2012H122.367V37.4023ZM130.928 41H129.727V36.7988C129.727 36.3848 129.648 35.9961 129.492 35.6328C129.336 35.2695 129.121 34.9531 128.848 34.6836C128.578 34.4102 128.26 34.1953 127.893 34.0391C127.529 33.8789 127.141 33.7988 126.727 33.7988H126.082V41H124.881V32.5977H126.727C127.109 32.5977 127.477 32.6484 127.828 32.75C128.184 32.8477 128.516 32.9863 128.824 33.166C129.133 33.3457 129.414 33.5605 129.668 33.8105C129.922 34.0605 130.143 34.3379 130.33 34.6426C130.514 34.3379 130.732 34.0605 130.986 33.8105C131.24 33.5605 131.521 33.3457 131.83 33.166C132.139 32.9863 132.469 32.8477 132.82 32.75C133.176 32.6484 133.545 32.5977 133.928 32.5977H135.779V41H134.578V33.7988H133.928C133.514 33.7988 133.125 33.8789 132.762 34.0391C132.398 34.1953 132.08 34.4102 131.807 34.6836C131.537 34.9531 131.322 35.2695 131.162 35.6328C131.006 35.9961 130.928 36.3848 130.928 36.7988V41ZM146.484 41H137.795V32.5977H146.484V33.7988H138.996V39.7988H146.484V41ZM145.465 37.4023H139.594V36.2012H145.465V37.4023ZM149.18 41H147.979V32.5977H148.576C148.967 32.5977 149.381 32.6484 149.818 32.75C150.26 32.8516 150.709 32.998 151.166 33.1895C151.623 33.3809 152.078 33.6133 152.531 33.8867C152.988 34.1562 153.43 34.4629 153.855 34.8066C154.281 35.1504 154.682 35.5254 155.057 35.9316C155.432 36.334 155.768 36.7637 156.064 37.2207V32.5977H157.266V41H156.064C156.064 40.3828 155.957 39.7891 155.742 39.2188C155.527 38.6445 155.24 38.1035 154.881 37.5957C154.521 37.0879 154.107 36.6211 153.639 36.1953C153.17 35.7656 152.68 35.3887 152.168 35.0645C151.66 34.7402 151.148 34.4746 150.633 34.2676C150.117 34.0566 149.633 33.916 149.18 33.8457V41ZM163.846 41H162.645V33.7988H158.396V32.5977H168.094V33.7988H163.846V41ZM178.5 38.5977C178.5 38.9336 178.438 39.248 178.312 39.541C178.188 39.8301 178.016 40.084 177.797 40.3027C177.582 40.5176 177.328 40.6875 177.035 40.8125C176.746 40.9375 176.436 41 176.104 41H168.803V39.7988H176.104C176.271 39.7988 176.428 39.7676 176.572 39.7051C176.717 39.6426 176.842 39.5566 176.947 39.4473C177.057 39.3379 177.143 39.2109 177.205 39.0664C177.268 38.918 177.299 38.7617 177.299 38.5977C177.299 38.4336 177.268 38.2793 177.205 38.1348C177.143 37.9902 177.057 37.8633 176.947 37.7539C176.842 37.6445 176.717 37.5586 176.572 37.4961C176.428 37.4336 176.271 37.4023 176.104 37.4023H171.205C170.877 37.4023 170.566 37.3398 170.273 37.2148C169.98 37.0898 169.725 36.9199 169.506 36.7051C169.291 36.4863 169.119 36.2305 168.99 35.9375C168.865 35.6445 168.803 35.332 168.803 35C168.803 34.6719 168.865 34.3613 168.99 34.0684C169.119 33.7754 169.291 33.5215 169.506 33.3066C169.725 33.0879 169.98 32.916 170.273 32.791C170.566 32.6621 170.877 32.5977 171.205 32.5977H177.902V33.7988H171.205C171.041 33.7988 170.885 33.8301 170.736 33.8926C170.592 33.9551 170.465 34.041 170.355 34.1504C170.246 34.2598 170.16 34.3887 170.098 34.5371C170.035 34.6816 170.004 34.8359 170.004 35C170.004 35.1641 170.035 35.3203 170.098 35.4688C170.16 35.6133 170.246 35.7402 170.355 35.8496C170.465 35.959 170.592 36.0449 170.736 36.1074C170.885 36.1699 171.041 36.2012 171.205 36.2012H176.104C176.436 36.2012 176.746 36.2656 177.035 36.3945C177.328 36.5195 177.582 36.6914 177.797 36.9102C178.016 37.125 178.188 37.3789 178.312 37.6719C178.438 37.9609 178.5 38.2695 178.5 38.5977Z" fill="black"/>
<line x1="11" y1="36.5" x2="61" y2="36.5" stroke="black"/>
<line x1="179" y1="36.5" x2="229" y2="36.5" stroke="black"/>
</svg>
